<svg version="1.1" xmlns="http://www.w3.org/2000/svg" viewBox="0 0 1676.1856987463461 1227.0686571168378" width="3352.3713974926923" height="2454.1373142336756">
  <!-- svg-source:excalidraw -->
  
  <defs>
    <style class="style-fonts">
      @font-face {
        font-family: "Virgil";
        src: url("https://excalidraw.com/Virgil.woff2");
      }
      @font-face {
        font-family: "Cascadia";
        src: url("https://excalidraw.com/Cascadia.woff2");
      }
    </style>
  </defs>
  <rect x="0" y="0" width="1676.1856987463461" height="1227.0686571168378" fill="#ffffff"></rect><g stroke-linecap="round" transform="translate(22.91057389681464 212.17352613840842) rotate(0 197.83162594631858 422.100520156259)"><path d="M0.83 0.97 C87.14 -0.02, 172.39 0.39, 396.14 1.06 M-0.21 -0.14 C148.15 2.46, 295.56 2.48, 396.14 -0.38 M395.96 -0.51 C392.38 211.35, 391.8 421.3, 396.08 844.09 M395.57 -0.13 C396.02 205.2, 396.14 410.74, 396 844.21 M395.24 844.03 C308.79 845.2, 221.22 845.5, 0.37 843.53 M395.75 844.44 C270.58 845.62, 145.37 845.91, 0.37 843.65 M0 844.59 C-3.85 556.75, -3.1 268.01, 0.72 -0.05 M0.01 843.98 C2.99 548.67, 2.71 252.38, 0 -0.39" stroke="#000000" stroke-width="2" fill="none"></path></g><g stroke-linecap="round" transform="translate(63.959870340502675 300.62701429308873) rotate(0 154.00770248151866 106.10972188173417)"><path d="M0.18 0.81 C116.84 2.39, 233.34 2.66, 307.67 0.38 M308.16 0.77 C307.65 42.87, 308.28 87.48, 309.05 213.12 M307.22 212.12 C217.65 214.48, 129.87 213.8, -0.08 211.74 M0.91 212.58 C-1.73 163.9, -0.28 113.61, -1.14 -0.3" stroke="#000000" stroke-width="2.5" fill="none" stroke-dasharray="8 10"></path></g><g stroke-linecap="round" transform="translate(66.77593907640858 585.410027248538) rotate(0 154.00770248151866 106.10972188173417)"><path d="M-0.77 -0.75 C115.59 -0.27, 232.87 -0.37, 309 -0.26 M307.88 0.63 C309.67 61.56, 310.29 125.56, 309.43 212.86 M307.91 213.08 C214.82 211.27, 118.89 211.6, 0.32 213.41 M-1.38 212.17 C1.91 170.03, 0.35 126.88, 0.57 -1.21" stroke="#000000" stroke-width="2.5" fill="none" stroke-dasharray="8 10"></path></g><g transform="translate(67.85316726130714 251.23804070665432) rotate(0 87.5 18)"><text x="0" y="25" font-family="Virgil, Segoe UI Emoji" font-size="28px" fill="#000000" text-anchor="start" style="white-space: pre;" direction="ltr">Job message</text></g><g transform="translate(72.37689310674614 537.344870423301) rotate(0 60.5 18)"><text x="0" y="25" font-family="Virgil, Segoe UI Emoji" font-size="28px" fill="#000000" text-anchor="start" style="white-space: pre;" direction="ltr">Condition</text></g><g transform="translate(88.94104670573051 327.3696844434704) rotate(0 46 12.5)"><text x="0" y="18" font-family="Virgil, Segoe UI Emoji" font-size="20px" fill="#000000" text-anchor="start" style="white-space: pre;" direction="ltr">Do this...</text></g><g transform="translate(88.41436062490357 607.3045109678908) rotate(0 99.5 25)"><text x="0" y="18" font-family="Virgil, Segoe UI Emoji" font-size="20px" fill="#000000" text-anchor="start" style="white-space: pre;" direction="ltr">...if these conditions</text><text x="0" y="43" font-family="Virgil, Segoe UI Emoji" font-size="20px" fill="#000000" text-anchor="start" style="white-space: pre;" direction="ltr"> have been met...</text></g><g transform="translate(177.02785791935185 165.012863920386) rotate(0 35.5 18)"><text x="0" y="25" font-family="Virgil, Segoe UI Emoji" font-size="28px" fill="#000000" text-anchor="start" style="white-space: pre;" direction="ltr">Job 1</text></g><g transform="translate(79.7288117017606 395.5394449777316) rotate(0 141 35.5)"><text x="0" y="25.5" font-family="Virgil, Segoe UI Emoji" font-size="28px" fill="#d9480f" text-anchor="start" style="white-space: pre;" direction="ltr">Send 22 Luna from </text><text x="0" y="61" font-family="Virgil, Segoe UI Emoji" font-size="28px" fill="#d9480f" text-anchor="start" style="white-space: pre;" direction="ltr">my Warp account...</text></g><g transform="translate(134.8008052397463 700.8232326697421) rotate(0 76.5 18)"><text x="0" y="25" font-family="Virgil, Segoe UI Emoji" font-size="28px" fill="#d9480f" text-anchor="start" style="white-space: pre;" direction="ltr">...at 10:00.</text></g><g transform="translate(603.1419217710918 791.6592094677363) rotate(0 62.5 23)"><text x="0" y="32" font-family="Virgil, Segoe UI Emoji" font-size="36px" fill="#000000" text-anchor="start" style="white-space: pre;" direction="ltr">Keeper:</text></g><g transform="translate(612.935893806949 933.6050939109568) rotate(0 137.5 106.5)"><text x="0" y="25.5" font-family="Virgil, Segoe UI Emoji" font-size="28px" fill="#d9480f" text-anchor="start" style="white-space: pre;" direction="ltr">Is it 10:00?</text><text x="0" y="61" font-family="Virgil, Segoe UI Emoji" font-size="28px" fill="#d9480f" text-anchor="start" style="white-space: pre;" direction="ltr"></text><text x="0" y="96.5" font-family="Virgil, Segoe UI Emoji" font-size="28px" fill="#d9480f" text-anchor="start" style="white-space: pre;" direction="ltr"></text><text x="0" y="132" font-family="Virgil, Segoe UI Emoji" font-size="28px" fill="#d9480f" text-anchor="start" style="white-space: pre;" direction="ltr"></text><text x="0" y="167.5" font-family="Virgil, Segoe UI Emoji" font-size="28px" fill="#d9480f" text-anchor="start" style="white-space: pre;" direction="ltr">Yes: Execute the </text><text x="0" y="203" font-family="Virgil, Segoe UI Emoji" font-size="28px" fill="#d9480f" text-anchor="start" style="white-space: pre;" direction="ltr">     Job 1 message!</text></g><g stroke-linecap="round" transform="translate(73.4766645523514 879.8039777219508) rotate(0 154.5 60.505717532681615)"><path d="M0.44 -0.97 C83.55 0.2, 167.28 -1.51, 307.92 -1.2 M309.33 -1.21 C309.55 29.42, 309.71 60.39, 310.22 121.03 M309.73 121.58 C225.08 119.19, 139.72 120.15, -1.42 119.88 M1.9 122.22 C-1.44 92.71, 1.8 60.24, -0.98 1.63" stroke="#000000" stroke-width="2.5" fill="none" stroke-dasharray="8 10"></path></g><g transform="translate(76.10179408044041 826.8573639985923) rotate(0 50 18)"><text x="0" y="25" font-family="Virgil, Segoe UI Emoji" font-size="28px" fill="#000000" text-anchor="start" style="white-space: pre;" direction="ltr">Reward</text></g><g transform="translate(166.5386526919765 934.0589851915938) rotate(0 51.5 18)"><text x="0" y="25" font-family="Virgil, Segoe UI Emoji" font-size="28px" fill="#d9480f" text-anchor="start" style="white-space: pre;" direction="ltr">.1 Luna.</text></g><g transform="translate(89.5952924760386 892.3876789285569) rotate(0 104 12.5)"><text x="0" y="18" font-family="Virgil, Segoe UI Emoji" font-size="20px" fill="#000000" text-anchor="start" style="white-space: pre;" direction="ltr">...and you will receive</text></g><g transform="translate(10 10) rotate(0 214.5 45.5)"><text x="0" y="32.5" font-family="Virgil, Segoe UI Emoji" font-size="36px" fill="#000000" text-anchor="start" style="white-space: pre;" direction="ltr">1. A job is created and </text><text x="0" y="78" font-family="Virgil, Segoe UI Emoji" font-size="36px" fill="#000000" text-anchor="start" style="white-space: pre;" direction="ltr">sent to the Job Queue</text></g><g transform="translate(606.1465171315685 17.85192761259384) rotate(0 196.5 45.5)"><text x="0" y="32.5" font-family="Virgil, Segoe UI Emoji" font-size="36px" fill="#000000" text-anchor="start" style="white-space: pre;" direction="ltr">2. A keeper examines </text><text x="0" y="78" font-family="Virgil, Segoe UI Emoji" font-size="36px" fill="#000000" text-anchor="start" style="white-space: pre;" direction="ltr">the Job Queue....</text></g><g transform="translate(1187.7260914248363 25.69927054936204) rotate(0 214 45.5)"><text x="0" y="32.5" font-family="Virgil, Segoe UI Emoji" font-size="36px" fill="#000000" text-anchor="start" style="white-space: pre;" direction="ltr">3. The Keeper executes</text><text x="0" y="78" font-family="Virgil, Segoe UI Emoji" font-size="36px" fill="#000000" text-anchor="start" style="white-space: pre;" direction="ltr">the job... </text></g><g stroke-linecap="round" transform="translate(29.940637739984595 1147.9941886141019) rotate(0 196.06604671669038 34.53723425136798)"><path d="M-0.17 -0.55 C87.73 -2.04, 174.72 -2.11, 391.43 0.9 M0.39 -0.48 C155.03 0.81, 311.17 0.65, 391.94 -0.22 M392.05 0.74 C393.55 19.64, 390.31 36.32, 393.6 70.68 M393.05 0.58 C392.59 19.33, 392.12 36.82, 392.3 68.12 M392.13 68.47 C300.14 69.93, 210.32 69.02, 0.22 68.35 M392.68 69.56 C250 70.15, 108.44 70.38, -0.51 69.02 M-1.65 67.13 C1.53 54.89, -0.81 38.5, 0.14 -1.32 M-0.49 69.22 C0.63 41.13, -0.92 14.53, 0.28 -0.85" stroke="#000000" stroke-width="2" fill="none"></path></g><g transform="translate(79.49372215015683 1087.3891616136025) rotate(0 118.5 18)"><text x="0" y="25" font-family="Virgil, Segoe UI Emoji" font-size="28px" fill="#000000" text-anchor="start" style="white-space: pre;" direction="ltr">My Warp Account</text></g><g transform="translate(120.5709949305874 1167.582677468074) rotate(0 58.5 18)"><text x="0" y="25" font-family="Virgil, Segoe UI Emoji" font-size="28px" fill="#d9480f" text-anchor="start" style="white-space: pre;" direction="ltr">50 Luna</text></g><g transform="translate(586.8724117306756 562.1358613704954) rotate(0 225.5 68.5)"><text x="0" y="31.666666666666664" font-family="Virgil, Segoe UI Emoji" font-size="36px" fill="#000000" text-anchor="start" style="white-space: pre;" direction="ltr">...and checks </text><text x="0" y="77.33333333333333" font-family="Virgil, Segoe UI Emoji" font-size="36px" fill="#000000" text-anchor="start" style="white-space: pre;" direction="ltr">to see if any job </text><text x="0" y="123" font-family="Virgil, Segoe UI Emoji" font-size="36px" fill="#000000" text-anchor="start" style="white-space: pre;" direction="ltr">conditions have been met.</text></g><g stroke-linecap="round" transform="translate(590.4922052400798 218.06310515588086) rotate(0 197.83162594631858 111.27387036249382)"><path d="M0.52 -0.49 C119.17 -2.57, 237.71 -2.33, 395.09 -0.86 M-0.4 0.04 C84.65 -1.37, 168.65 -0.98, 395.46 -0.23 M397.3 -0.42 C395.61 80.89, 396.1 160.99, 394.2 221.35 M395.52 0.35 C395.07 81.96, 394.26 163.07, 395.1 222.23 M395.42 222.96 C243.16 224.34, 90.99 223.54, 0.84 222.5 M396.09 222.87 C242.63 222.43, 90.4 222.87, -0.4 222.17 M0.64 221.58 C-1.1 157.76, -2.76 94.3, -0.59 -1.71 M-0.13 222.66 C-1.1 173.8, -0.84 125.02, -0.23 0.6" stroke="#000000" stroke-width="2" fill="none"></path></g><g transform="translate(675.078943324851 258.8864674934073) rotate(0 42 35.5)"><text x="0" y="25.5" font-family="Virgil, Segoe UI Emoji" font-size="28px" fill="#d9480f" text-anchor="start" style="white-space: pre;" direction="ltr">Job 1 </text><text x="0" y="61" font-family="Virgil, Segoe UI Emoji" font-size="28px" fill="#d9480f" text-anchor="start" style="white-space: pre;" direction="ltr"></text></g><g transform="translate(652.3368080041719 164.9003415947052) rotate(0 73 18)"><text x="0" y="25" font-family="Virgil, Segoe UI Emoji" font-size="28px" fill="#000000" text-anchor="start" style="white-space: pre;" direction="ltr">Job Queue</text></g><g stroke-linecap="round" transform="translate(591.0675318186695 913.0826619336816) rotate(0 197.83162594631858 138.14799210606571)"><path d="M-0.47 1 C99.32 0.54, 199.89 1.71, 396.61 0.82 M0.49 -0.05 C114.49 0.12, 228.42 -0.12, 395.48 0.25 M395.81 -0.77 C394.76 100.81, 394.36 198.47, 396.3 276.99 M395.29 0.75 C395.11 85.71, 394.03 171.07, 395.97 275.56 M395.09 275.76 C261.97 278.88, 130.37 277.14, -0.07 275.48 M395.16 276.3 C256.45 274.65, 116.99 275.12, 0.37 276.48 M0.21 276.8 C1.91 210.88, 2.82 142.62, 1.42 0.2 M0.39 276.21 C-2.09 200.18, -1.48 124.74, -0.43 0.53" stroke="#000000" stroke-width="2" fill="none"></path></g><g transform="translate(611.7658529999153 1000.5906606892123) rotate(0 103.5 18)"><text x="0" y="25" font-family="Virgil, Segoe UI Emoji" font-size="28px" fill="#000000" text-anchor="start" style="white-space: pre;" direction="ltr">No: Do nothing.</text></g><g stroke-linecap="round" transform="translate(1222.8774399198091 225.97170507053602) rotate(0 196.06604671669083 34.53723425136795)"><path d="M0.6 0.79 C88.5 0.22, 176.28 0.8, 391.97 -0.27 M0.41 -0.31 C147.99 1.74, 295.27 1.68, 392.41 -0.36 M393.28 0.1 C392.84 26.5, 393.2 54.78, 391.08 68.02 M392.7 0.39 C391.21 17.55, 392.17 34.25, 392.37 68.33 M391.81 68.81 C251.39 68.34, 108.98 68.08, 0.12 70.17 M391.62 68.82 C243.32 70.38, 95.24 70.04, -0.44 68.62 M-1.53 68.78 C0.1 48.95, -2.56 30.11, 1.75 0.24 M-0.34 69.83 C0.24 41.72, 0.34 16.12, -0.94 0.49" stroke="#000000" stroke-width="2" fill="none"></path></g><g transform="translate(1271.9111837288028 165.36667807003687) rotate(0 118.5 18)"><text x="0" y="25" font-family="Virgil, Segoe UI Emoji" font-size="28px" fill="#000000" text-anchor="start" style="white-space: pre;" direction="ltr">My Warp Account</text></g><g transform="translate(1313.507797110412 245.5601939245082) rotate(0 58.5 18)"><text x="0" y="25" font-family="Virgil, Segoe UI Emoji" font-size="28px" fill="#d9480f" text-anchor="start" style="white-space: pre;" direction="ltr">50 Luna</text></g><g transform="translate(1277.8849767586125 458.7693604480363) rotate(0 149.5 35.5)"><text x="0" y="25.5" font-family="Virgil, Segoe UI Emoji" font-size="28px" fill="#d9480f" text-anchor="start" style="white-space: pre;" direction="ltr">22 Luna is sent to </text><text x="0" y="61" font-family="Virgil, Segoe UI Emoji" font-size="28px" fill="#d9480f" text-anchor="start" style="white-space: pre;" direction="ltr">the specified address</text></g><g transform="translate(1266.4873391188048 865.6785560901683) rotate(0 159 18)"><text x="0" y="25" font-family="Virgil, Segoe UI Emoji" font-size="28px" fill="#d9480f" text-anchor="start" style="white-space: pre;" direction="ltr">.1 Luna given to keeper</text></g><g transform="translate(1291.1856987463461 669.8215876799711) rotate(0 187.5 23)"><text x="0" y="32" font-family="Virgil, Segoe UI Emoji" font-size="36px" fill="#000000" text-anchor="start" style="white-space: pre;" direction="ltr">...and gets a reward.</text></g><g transform="translate(675.1779187807006 298.6194159842147) rotate(0 41 53.5)"><text x="0" y="24.666666666666664" font-family="Virgil, Segoe UI Emoji" font-size="28px" fill="#000000" text-anchor="start" style="white-space: pre;" direction="ltr">Job 2</text><text x="0" y="60.33333333333333" font-family="Virgil, Segoe UI Emoji" font-size="28px" fill="#000000" text-anchor="start" style="white-space: pre;" direction="ltr">Job 3</text><text x="0" y="96" font-family="Virgil, Segoe UI Emoji" font-size="28px" fill="#000000" text-anchor="start" style="white-space: pre;" direction="ltr">Job 4</text></g><g stroke-linecap="round" transform="translate(1256.953645222674 1070.4343622234423) rotate(0 185.34431401558504 51)"><path d="M-0.87 0.67 C106.21 -1.32, 211.65 -1.36, 369.79 1.16 M0.27 0.6 C85.41 -0.42, 171.68 -1.05, 370.14 -0.07 M368.8 0.36 C369.34 20.24, 369.42 40.33, 369.65 102.12 M370.68 0.6 C369.34 28.78, 369.1 55.66, 370.67 101.7 M371.78 101.72 C255.04 101.9, 139.01 102.56, 0.03 102.67 M370.77 102.34 C238.55 101.41, 105.56 101.74, 0.58 102.56 M-0.2 102.12 C-2.45 70.4, 0.04 42.6, 1.63 -1.76 M0.34 102.38 C0.23 77.77, 0.25 53.96, -0.21 -0.55" stroke="#000000" stroke-width="2" fill="none"></path></g><g transform="translate(715.2240655972691 867.447107510132) rotate(0 35.5 18)"><text x="0" y="25" font-family="Virgil, Segoe UI Emoji" font-size="28px" fill="#000000" text-anchor="start" style="white-space: pre;" direction="ltr">Job 1</text></g><g transform="translate(1279.8055781854791 1103.4345159561915) rotate(0 159.5 23)"><text x="0" y="32" font-family="Virgil, Segoe UI Emoji" font-size="36px" fill="#000000" text-anchor="start" style="white-space: pre;" direction="ltr">Status: Executed</text></g><g transform="translate(1381.4878285840396 1015.2745420254755) rotate(0 35.5 18)"><text x="0" y="25" font-family="Virgil, Segoe UI Emoji" font-size="28px" fill="#000000" text-anchor="start" style="white-space: pre;" direction="ltr">Job 1</text></g><g stroke-linecap="round" transform="translate(1229.7798522405392 404.19160950069966) rotate(0 192.64621218167485 92.10681021172036)"><path d="M261.78 6.13 C280.47 7.94, 298.15 15.2, 313.65 21.16 C329.16 27.12, 344.04 34.04, 354.79 41.88 C365.53 49.72, 372.96 59.02, 378.1 68.22 C383.24 77.43, 386.45 87.6, 385.63 97.12 C384.81 106.63, 380.31 116.46, 373.16 125.31 C366.02 134.16, 355.45 142.98, 342.77 150.22 C330.09 157.45, 313.97 163.42, 297.1 168.72 C280.22 174.01, 260.68 179.4, 241.52 181.99 C222.37 184.58, 201.79 185.01, 182.17 184.25 C162.56 183.49, 142.23 180.84, 123.82 177.42 C105.42 174, 87.12 169.6, 71.76 163.73 C56.4 157.86, 42.37 150.3, 31.66 142.2 C20.96 134.09, 12.85 124.08, 7.53 115.09 C2.21 106.1, -1.22 97.53, -0.26 88.26 C0.69 78.99, 5.87 68.39, 13.24 59.45 C20.6 50.51, 31.6 42.15, 43.94 34.59 C56.28 27.04, 70.78 19.34, 87.27 14.11 C103.76 8.87, 123.51 5.51, 142.89 3.2 C162.28 0.89, 182.09 -0.4, 203.57 0.27 C225.05 0.95, 259.11 5.31, 271.79 7.25 C284.46 9.19, 280.93 10.52, 279.63 11.89 M111.9 8.87 C127.67 3.78, 150.64 1.76, 170.2 0.42 C189.77 -0.91, 210.24 -0.97, 229.3 0.86 C248.37 2.68, 267.26 6.5, 284.59 11.35 C301.92 16.19, 319.57 23.11, 333.27 29.93 C346.97 36.75, 358.31 43.68, 366.78 52.26 C375.24 60.84, 381.72 71.66, 384.04 81.42 C386.36 91.18, 384.36 101.54, 380.68 110.83 C377.01 120.12, 371.65 129.26, 362 137.16 C352.35 145.06, 337.29 151.59, 322.79 158.24 C308.29 164.88, 292.93 172.65, 275.01 177.01 C257.08 181.36, 235.23 183.71, 215.24 184.38 C195.25 185.05, 174.22 183.07, 155.08 181.03 C135.94 179, 117.65 176.31, 100.42 172.16 C83.18 168.02, 65.23 162.99, 51.69 156.14 C38.16 149.28, 27.4 139.69, 19.21 131.02 C11.01 122.35, 5.23 113.55, 2.52 104.1 C-0.19 94.64, -0.68 83.71, 2.95 74.28 C6.57 64.85, 14.5 55.71, 24.27 47.52 C34.04 39.33, 47.06 31.85, 61.57 25.15 C76.08 18.45, 102.71 10.01, 111.31 7.32 C119.91 4.63, 111.74 7.6, 113.18 9.02" stroke="#000000" stroke-width="2" fill="none"></path></g><g stroke-linecap="round" transform="translate(1226.817583473011 829.3495886555146) rotate(0 199.67008057046178 58.876737459521564)"><path d="M168.06 0.05 C187.07 -1.72, 210.63 0.37, 230.94 1.28 C251.25 2.19, 271.82 2.76, 289.92 5.51 C308.01 8.25, 324.8 13.43, 339.51 17.74 C354.22 22.05, 368.55 26.19, 378.19 31.39 C387.82 36.59, 394.36 42.72, 397.33 48.94 C400.3 55.15, 399.3 62.6, 396 68.67 C392.71 74.75, 386.55 79.98, 377.58 85.39 C368.61 90.8, 356.63 96.71, 342.19 101.14 C327.76 105.57, 309.31 109.39, 290.97 111.96 C272.63 114.54, 252.48 115.73, 232.15 116.6 C211.82 117.46, 189.41 117.95, 169.01 117.13 C148.6 116.3, 128.02 114.36, 109.73 111.62 C91.44 108.88, 74.03 104.97, 59.28 100.69 C44.53 96.42, 30.82 91.33, 21.23 86 C11.64 80.66, 5 74.71, 1.73 68.69 C-1.54 62.67, -1.54 55.83, 1.59 49.88 C4.73 43.92, 11.2 38.27, 20.54 32.97 C29.88 27.67, 43.08 22.5, 57.64 18.08 C72.21 13.66, 87.16 9.42, 107.93 6.45 C128.7 3.48, 167.15 1.28, 182.28 0.27 C197.41 -0.74, 198.43 -0.67, 198.72 0.41 M153.84 1.25 C172.37 -0.95, 196.3 0.31, 216.67 0.89 C237.03 1.46, 257.1 2.46, 276.04 4.69 C294.99 6.93, 314.63 10.43, 330.34 14.28 C346.05 18.14, 359.46 22.4, 370.3 27.82 C381.14 33.23, 390.44 40.62, 395.4 46.77 C400.36 52.91, 402.01 58.64, 400.07 64.69 C398.12 70.73, 391.79 77.65, 383.74 83.06 C375.7 88.46, 365.06 92.84, 351.8 97.09 C338.54 101.35, 321.99 105.66, 304.2 108.6 C286.41 111.54, 265.26 113.2, 245.06 114.74 C224.87 116.28, 203.45 117.94, 183.03 117.84 C162.61 117.73, 141.36 116.53, 122.54 114.09 C103.73 111.66, 85.78 107.4, 70.13 103.25 C54.47 99.1, 39.22 94.48, 28.62 89.19 C18.02 83.91, 11.21 77.21, 6.51 71.53 C1.82 65.86, -1.27 61.13, 0.44 55.13 C2.14 49.14, 8.76 41.32, 16.73 35.57 C24.71 29.82, 34.99 24.93, 48.29 20.65 C61.59 16.36, 78.82 13.15, 96.53 9.85 C114.24 6.56, 144.62 2.26, 154.53 0.9 C164.44 -0.46, 155.22 0.8, 155.99 1.7" stroke="#000000" stroke-width="2" fill="none"></path></g></svg>