<svg width="500" height="500" viewBox="0 0 500 500" fill="none" xmlns="http://www.w3.org/2000/svg">
<rect width="500" height="500" rx="250" fill="#141414"/>
<path d="M107 192L149.863 326.711H200.89L221.045 239.71C222.576 233.587 222.321 226.954 222.321 221.596C222.321 219.81 222.831 217.769 225.383 217.769C227.934 217.769 228.444 219.81 228.444 221.596C228.444 226.954 228.189 233.587 229.72 239.71L249.876 326.711H300.903L343.765 192H304.475L279.726 284.869C278.196 290.482 278.451 295.84 278.451 301.198C278.451 302.984 277.941 305.025 275.389 305.025C272.838 305.025 272.328 302.984 272.328 301.198C272.328 295.84 272.328 290.482 271.052 284.869L248.855 192H201.91L179.714 284.869C178.438 290.482 178.438 295.84 178.438 301.198C178.438 302.984 177.928 305.025 175.376 305.025C172.825 305.025 172.315 302.984 172.315 301.198C172.315 295.84 172.57 290.482 171.039 284.869L146.291 192H107Z" fill="#DFE2E1"/>
<path d="M351.958 289.972V326.711H392.779V289.972H351.958Z" fill="#DFE2E1"/>
</svg>
